<svg xmlns="http://www.w3.org/2000/svg" viewBox="0 0 323.16 131.44"><title>wufoo-by-surveymonkey</title><path d="M29.41,83.73,0,17.5l19.94-3.87,9,24.92c2.79,7.79,5.81,16.69,8.24,23.71l.2,0c-.39-8-.55-16.65-.68-25.49L36.2,10.47,56.06,6.59,65.55,32.4c2.8,7.78,5.1,14.71,7.54,22.34l.21,0c-.49-8-.84-16.39-1.2-24.86L71.27,3.65,90.1,0,86.49,72.63,66.24,76.57,56.32,50.31c-2.21-5.88-4.38-12.15-6.92-20.21l-.2,0c.44,8.36.8,15.12.75,21.43l0,28.17Z" fill="#fff"/><path d="M110.42,20.36l-5.58,39.75c-1.49,10.58,1.3,17,8.68,18.05s11.87-3.83,13.42-14.94l5.59-39.75,18.77,2.64-5.43,38.6c-3,21.58-15.35,31-35,28.2-19.1-2.68-27.8-14.59-24.64-37l5.36-38.18Z" fill="#fff"/><polygon points="147.74 9.96 192.94 6.18 194.23 21.64 167.92 23.84 168.99 36.77 193.75 34.72 195.02 49.96 170.28 52.03 172.5 78.76 153.59 80.36 147.74 9.96" fill="#fff"/><path d="M228.1,89.62c-21.9,0-33.95-16.43-33.95-36,0-20.53,13.42-36.88,35.1-36.88,22.75,0,34.26,16.86,34.26,35.72,0,22.75-13.62,37.2-35.3,37.2Zm.95-15c9.11,0,14.46-8.79,14.46-21.58,0-12.14-5.44-21.37-14.66-21.37s-14.67,9.22-14.67,21.46c-.11,12.69,5.56,21.48,14.67,21.48Z" fill="#fff"/><path d="M287.75,73.1c-21.91,0-34-16.46-34-36C253.8,16.51,267.22.17,288.9.17,311.65.17,323.16,17,323.16,35.9c0,22.74-13.61,37.2-35.3,37.2Zm.93-15c9.13,0,14.48-8.81,14.48-21.6,0-12.15-5.45-21.37-14.68-21.37s-14.66,9.21-14.66,21.48c-.11,12.67,5.56,21.48,14.66,21.48Z" fill="#fff"/><path d="M90,113.19a4.37,4.37,0,0,1,4.3-2.82c3.92,0,6,3.2,6,7.56,0,4.59-2.44,7.76-6.25,7.76a4.24,4.24,0,0,1-4.33-3l-.41,2.62H86.39v-21H90Zm0,5.87c0,2.79,1.57,3.92,3.14,3.92,2.09,0,3.52-1.69,3.52-5s-1.31-4.82-3.46-4.82c-1.63,0-3.2,1.28-3.2,4.07Z" fill="#fff"/><path d="M112.58,110.72h3.49l-5.38,15.2c-1.48,4.13-3.2,5.52-5.87,5.52a5.17,5.17,0,0,1-2.62-.7l.61-2.73a2.75,2.75,0,0,0,1.72.61c1.22,0,1.8-.58,2.59-2.76l-5.35-15.14h3.78l3.43,11.1H109Z" fill="#fff"/><path d="M124.12,120.4l3.23-1.22a4.31,4.31,0,0,0,4.51,3.63c2,0,3.58-.87,3.58-2.73,0-4.24-10.49-1.4-10.49-8.66,0-3.6,3.14-5.84,7-5.84s6.45,1.6,7,5.06l-3.31.84a3.47,3.47,0,0,0-3.69-3.05c-2.06,0-3.37,1.1-3.37,2.7,0,4.27,10.52,1.28,10.52,8.75,0,3.78-3.34,5.81-7.27,5.81S124.84,123.71,124.12,120.4Z" fill="#fff"/><path d="M151.35,122.61a4.39,4.39,0,0,1-4.56,3.08,4.33,4.33,0,0,1-4.53-4.71V110.72h3.58v9.45c0,1.69.84,2.67,2.35,2.67s3-1.16,3-3.87v-8.25h3.6v14.62h-3Z" fill="#fff"/><path d="M167.74,114.15a5.37,5.37,0,0,0-1.48-.2c-2,0-3.6,1.48-3.6,4.33v7.06h-3.57V110.72h3l.41,3.55c.61-2.56,2.67-4.3,5.44-3.78Z" fill="#fff"/><path d="M176.52,121.47l3.58-10.75h3.46l-5.35,14.62h-3.58l-5.38-14.62H173l3.43,10.75Z" fill="#fff"/><path d="M194.83,120.69l3,1c-.78,2.85-3.23,4-5.93,4-4.22,0-6.89-2.73-6.89-7.56s2.67-7.76,6.92-7.76c4,0,6,2.79,6,6.34a6.54,6.54,0,0,1-.29,1.95h-9.24c.09,2.7,1.37,4.3,3.49,4.3A2.74,2.74,0,0,0,194.83,120.69Zm-.32-4a6.34,6.34,0,0,0,0-.73,2.7,2.7,0,0,0-2.7-3c-1.92,0-3.14,1.39-3.37,3.72Z" fill="#fff"/><path d="M210.21,110.72h3.49l-5.38,15.2c-1.48,4.13-3.2,5.52-5.87,5.52a5.17,5.17,0,0,1-2.62-.7l.61-2.73a2.75,2.75,0,0,0,1.72.61c1.22,0,1.8-.58,2.59-2.76l-5.35-15.14h3.78l3.43,11.1h.06Z" fill="#fff"/><path d="M227.13,120.92h-2.35l-4.62-9.56h-.06l0,3.69v10.29h-3.55V105.92h4.13L226,116.79h.06l5.29-10.87h4v19.42h-3.55V115l0-3.69h-.06Z" fill="#fff"/><path d="M245.76,125.69c-4.13,0-6.95-2.76-6.95-7.67s2.82-7.64,6.95-7.64,6.95,2.76,6.95,7.64S249.92,125.69,245.76,125.69Zm0-12.64c-2.24,0-3.34,1.74-3.34,5s1.1,5,3.34,5,3.37-1.74,3.37-5S248,113,245.76,113Z" fill="#fff"/><path d="M259.45,113.54a4.81,4.81,0,0,1,4.77-3.17c2.67,0,4.56,1.69,4.56,4.74v10.23h-3.6v-9.24c0-1.63-.73-2.7-2.38-2.7s-3.14,1-3.14,3.75v8.2h-3.57V110.72H259Z" fill="#fff"/><path d="M286.51,125.34h-4.19l-4.77-6.45h-1.08v6.45h-3.57v-21h3.57v11.89h1.13l4.33-5.52h4l-5.32,6.71Z" fill="#fff"/><path d="M297.33,120.69l3,1c-.78,2.85-3.23,4-5.93,4-4.22,0-6.89-2.73-6.89-7.56s2.67-7.76,6.92-7.76c4,0,6,2.79,6,6.34a6.54,6.54,0,0,1-.29,1.95H290.9c.09,2.7,1.37,4.3,3.49,4.3A2.74,2.74,0,0,0,297.33,120.69Zm-.32-4a6.34,6.34,0,0,0,0-.73,2.7,2.7,0,0,0-2.7-3c-1.92,0-3.14,1.39-3.37,3.72Z" fill="#fff"/><path d="M312.7,110.72h3.49l-5.38,15.2c-1.48,4.13-3.2,5.52-5.87,5.52a5.17,5.17,0,0,1-2.62-.7l.61-2.73a2.75,2.75,0,0,0,1.72.61c1.22,0,1.8-.58,2.59-2.76l-5.35-15.14h3.78l3.43,11.1h.06Z" fill="#fff"/></svg>